<svg id="Layer_1" data-name="Layer 1" xmlns="http://www.w3.org/2000/svg" viewBox="0 0 32 31"><defs><style>.cls-1{fill:#f1f1f1;}.cls-1,.cls-2{fill-rule:evenodd;}.cls-2{fill:#a8ff03;}</style></defs><path class="cls-1" d="M16.15,29.91a15,15,0,1,0-15-15A15,15,0,0,0,16.15,29.91Zm0-.66A14.3,14.3,0,1,0,1.83,15,14.31,14.31,0,0,0,16.15,29.25Z"/><path class="cls-1" d="M15,29.91A15,15,0,1,0,0,15,15,15,0,0,0,15,29.91Zm0-.66A14.3,14.3,0,1,0,.65,15,14.31,14.31,0,0,0,15,29.25Z"/><path class="cls-2" d="M17,31A15,15,0,1,0,2,16,15,15,0,0,0,17,31Zm0-.67A14.3,14.3,0,1,0,2.68,16,14.31,14.31,0,0,0,17,30.33Z"/></svg>