<svg id="Layer_1" data-name="Layer 1" xmlns="http://www.w3.org/2000/svg" viewBox="0 0 32 31"><defs><style>.cls-1{fill:#a8ff03;}.cls-1,.cls-2,.cls-3{fill-rule:evenodd;}.cls-2{fill:#60b847;}.cls-3{fill:#057137;}</style></defs><path class="cls-1" d="M17,31A15,15,0,1,0,2,16,15,15,0,0,0,17,31Zm0-.66A14.3,14.3,0,1,0,2.7,16,14.31,14.31,0,0,0,17,30.34Z"/><path class="cls-2" d="M16.17,29.91A15,15,0,1,0,1.18,15,15,15,0,0,0,16.17,29.91Zm0-.66A14.3,14.3,0,1,0,1.85,15,14.31,14.31,0,0,0,16.17,29.25Z"/><path class="cls-3" d="M15,29.91A15,15,0,1,0,0,15,15,15,0,0,0,15,29.91Zm0-.66A14.3,14.3,0,1,0,.66,15,14.31,14.31,0,0,0,15,29.25Z"/></svg>